<svg id="svg" version="1.1" xmlns="http://www.w3.org/2000/svg" xmlns:xlink="http://www.w3.org/1999/xlink" width="400" height="398.6666666666667" viewBox="0, 0, 400,398.6666666666667"><g id="svgg"><path id="path0" d="M132.014 3.550 C 128.669 6.468,126.873 7.443,121.941 9.019 C 116.735 10.683,115.634 11.309,113.642 13.740 L 111.345 16.543 107.506 15.558 C 105.394 15.016,101.167 13.818,98.112 12.896 C 95.058 11.974,92.457 11.321,92.333 11.445 C 91.652 12.126,97.213 22.168,100.961 27.023 L 105.316 32.665 102.824 35.054 C 99.717 38.034,86.667 44.377,80.885 45.717 L 76.552 46.722 73.301 44.243 C 70.797 42.334,69.638 40.795,68.258 37.549 C 66.140 32.564,66.308 32.613,62.984 36.016 L 60.364 38.700 59.222 37.186 L 58.081 35.673 49.040 37.990 L 40.000 40.306 40.000 43.486 C 40.000 46.562,40.065 46.667,41.962 46.667 C 43.240 46.667,44.290 47.189,44.973 48.163 C 46.148 49.841,45.739 50.101,40.551 50.966 C 38.239 51.352,38.061 51.562,37.384 54.720 C 36.325 59.658,36.403 59.889,39.647 61.465 C 42.303 62.756,42.770 63.336,43.937 66.792 L 45.247 70.670 41.384 86.352 C 36.857 104.730,37.915 102.832,32.901 101.569 L 28.840 100.546 19.138 106.106 L 9.436 111.667 8.649 116.215 C 8.217 118.717,8.064 122.100,8.309 123.734 L 8.754 126.704 5.415 128.092 C 2.460 129.320,1.956 129.831,1.038 132.525 C -0.564 137.226,-0.322 137.880,5.642 144.971 C 11.114 151.477,11.206 151.646,10.279 153.438 C 8.864 156.175,9.093 156.660,11.833 156.733 C 16.384 156.854,17.577 157.501,18.214 160.192 L 18.799 162.667 24.534 162.667 C 30.096 162.667,30.339 162.601,32.537 160.500 L 34.805 158.333 34.547 163.173 C 34.219 169.320,37.358 173.486,41.285 172.117 C 42.845 171.573,44.776 171.657,49.282 172.467 L 55.222 173.534 58.766 170.434 C 62.022 167.585,62.596 167.333,65.822 167.333 C 67.753 167.333,69.343 167.108,69.355 166.833 C 69.477 163.938,75.964 159.193,81.833 157.704 L 88.000 156.140 88.000 163.501 L 88.000 170.863 90.490 173.931 C 91.860 175.619,94.448 178.443,96.242 180.206 L 99.503 183.412 103.658 183.226 C 107.787 183.040,107.836 183.059,111.740 186.415 C 115.558 189.698,115.885 189.834,123.544 191.325 C 130.043 192.589,132.101 193.297,135.304 195.366 L 139.185 197.875 139.664 202.640 C 140.052 206.508,139.946 207.621,139.099 208.558 C 138.148 209.608,138.193 210.216,139.595 215.355 L 141.134 221.000 150.234 221.185 L 159.333 221.371 159.333 225.295 C 159.333 229.215,159.338 229.223,162.548 231.580 C 165.117 233.466,166.007 234.657,166.978 237.513 L 168.192 241.087 165.324 249.696 L 162.455 258.305 164.316 263.787 C 166.012 268.783,166.136 269.787,165.718 275.134 L 165.259 281.000 173.796 281.000 C 185.941 281.000,185.827 280.920,187.969 290.946 C 189.841 299.708,190.012 299.909,194.332 298.437 L 197.310 297.422 198.599 300.336 C 199.869 303.207,199.870 303.323,198.622 308.125 C 196.882 314.827,196.921 315.108,199.679 315.625 C 206.670 316.936,206.711 327.800,199.744 332.674 C 189.356 339.939,175.671 353.444,172.603 359.457 C 170.928 362.742,170.888 362.667,174.294 362.667 C 177.149 362.667,177.391 362.832,181.093 367.333 C 185.500 372.690,184.924 372.382,187.332 370.668 L 189.203 369.335 189.868 371.241 C 190.346 372.612,192.106 374.113,196.127 376.579 C 199.204 378.465,203.344 381.653,205.328 383.661 L 208.935 387.314 207.052 389.279 C 205.152 391.263,205.032 392.798,206.414 397.500 C 207.279 400.446,211.252 398.813,213.309 394.667 C 217.251 386.723,220.883 382.124,225.000 379.863 C 229.528 377.376,235.159 369.834,241.073 358.333 C 243.006 354.575,245.529 350.926,247.827 348.565 C 252.453 343.814,254.296 337.738,253.030 331.415 C 251.784 325.199,253.605 318.260,257.038 316.140 C 258.484 315.247,261.317 312.941,263.333 311.017 C 270.448 304.228,276.955 300.000,280.289 300.000 C 282.549 300.000,283.492 299.666,284.238 298.601 C 285.769 296.414,289.739 294.000,291.803 294.000 C 292.834 294.000,295.055 293.267,296.739 292.370 C 299.695 290.797,299.936 290.773,303.733 291.680 C 311.501 293.535,317.383 292.859,318.467 289.988 C 318.995 288.588,320.422 287.468,323.925 285.705 L 328.667 283.317 328.667 279.628 C 328.667 275.466,331.473 270.628,339.007 261.803 L 342.831 257.324 342.514 253.505 C 342.214 249.881,342.345 249.465,345.095 245.330 C 350.889 236.616,354.431 220.356,353.806 205.342 L 353.432 196.351 355.701 193.581 C 357.247 191.694,359.037 190.428,361.314 189.609 C 364.435 188.487,364.900 188.004,368.299 182.370 C 371.766 176.622,374.143 173.774,390.315 156.002 L 397.290 148.337 398.645 142.451 C 400.982 132.300,399.807 123.722,395.228 117.517 C 393.665 115.399,392.324 113.566,392.247 113.443 C 392.170 113.320,389.266 112.387,385.792 111.370 C 379.036 109.392,375.959 107.432,366.333 98.970 C 363.767 96.713,358.391 92.681,354.387 90.010 L 347.107 85.152 340.387 85.535 C 333.174 85.945,328.817 85.180,317.781 81.565 L 312.561 79.855 308.861 81.271 C 304.528 82.930,303.333 82.424,303.333 78.933 C 303.333 77.703,302.542 75.082,301.574 73.109 L 299.815 69.522 297.200 70.186 C 294.767 70.803,294.438 70.707,292.459 68.808 C 288.317 64.829,273.286 59.883,268.014 60.764 C 263.730 61.479,263.637 61.540,261.667 64.905 C 260.535 66.838,259.088 68.430,258.333 68.571 C 257.078 68.807,257.065 68.749,258.111 67.577 C 259.925 65.546,261.437 60.989,261.211 58.237 L 261.000 55.667 253.667 55.158 C 249.633 54.878,244.708 54.728,242.721 54.825 L 239.108 55.000 237.664 59.333 C 235.753 65.068,233.134 65.739,232.800 60.579 C 232.604 57.550,232.698 57.388,237.847 51.913 C 242.152 47.335,247.333 40.004,247.333 38.491 C 247.333 38.301,246.140 37.667,244.681 37.083 C 241.628 35.862,237.339 28.534,237.326 24.517 C 237.308 19.240,236.516 17.233,232.946 13.424 L 229.424 9.667 225.086 13.941 C 221.602 17.373,220.658 18.751,220.293 20.941 C 219.982 22.813,218.978 24.606,217.086 26.667 L 214.333 29.667 209.667 29.468 C 207.100 29.359,204.084 29.546,202.963 29.884 C 201.200 30.417,200.322 30.144,196.408 27.852 L 191.890 25.204 190.445 26.520 C 189.650 27.243,187.800 28.038,186.333 28.287 C 181.379 29.125,181.382 29.122,182.109 31.755 C 182.981 34.912,182.937 34.929,176.677 33.748 L 171.238 32.722 165.570 35.341 C 156.648 39.462,152.706 39.926,148.658 37.327 C 142.894 33.629,141.098 24.329,144.760 17.150 C 146.571 13.601,145.976 10.509,142.889 7.423 C 140.885 5.418,140.585 4.721,140.793 2.542 C 141.189 -1.615,137.444 -1.185,132.014 3.550 M139.129 3.665 C 138.794 5.734,139.005 6.190,141.008 7.718 C 144.358 10.273,145.107 13.191,143.313 16.706 C 139.549 24.086,141.593 34.672,147.542 38.609 L 150.947 40.862 155.651 40.131 C 158.311 39.717,162.668 38.334,165.678 36.947 L 171.000 34.494 176.333 35.254 C 179.267 35.671,182.386 36.207,183.265 36.443 C 184.722 36.836,184.825 36.718,184.432 35.103 C 183.120 29.722,182.938 30.210,186.449 29.691 C 188.219 29.429,190.170 28.765,190.785 28.214 C 191.791 27.314,192.344 27.460,196.296 29.671 C 200.583 32.068,200.770 32.108,204.008 31.331 C 206.014 30.850,208.872 30.714,211.233 30.988 L 215.138 31.442 218.207 27.849 C 220.328 25.366,221.411 23.414,221.712 21.532 C 222.051 19.412,222.947 18.019,225.757 15.244 L 229.367 11.679 232.184 14.960 C 235.007 18.251,235.888 20.712,235.962 25.517 C 236.025 29.658,240.135 37.055,242.936 38.068 L 245.238 38.900 243.528 42.283 C 242.588 44.144,239.365 48.249,236.366 51.405 C 231.206 56.834,230.925 57.284,231.155 59.739 C 231.674 65.282,231.772 65.428,234.802 65.204 L 237.561 65.000 239.000 60.667 C 240.691 55.572,240.407 55.662,252.333 56.490 C 259.548 56.992,259.670 57.027,259.865 58.704 C 260.197 61.551,257.725 66.316,255.064 67.960 C 251.240 70.324,251.889 71.247,256.756 70.366 C 260.707 69.652,260.910 69.514,262.743 66.313 C 266.422 59.886,282.978 62.174,291.252 70.253 C 293.796 72.738,293.943 72.789,296.314 72.006 C 297.657 71.563,298.849 71.305,298.963 71.434 C 300.172 72.798,302.000 77.804,302.000 79.754 C 302.000 84.182,303.369 84.874,308.470 83.022 L 312.799 81.451 316.566 82.752 C 326.645 86.232,333.228 87.422,339.754 86.942 L 345.999 86.484 353.475 91.409 C 357.587 94.117,362.762 97.954,364.976 99.935 C 373.789 107.823,378.654 110.926,384.966 112.685 C 396.172 115.806,400.801 127.240,397.106 142.667 C 395.928 147.584,395.782 147.804,388.283 156.000 C 373.842 171.781,370.578 175.683,367.127 181.294 C 363.939 186.478,363.384 187.035,360.071 188.365 C 357.507 189.394,355.833 190.650,354.241 192.738 L 352.008 195.667 352.427 204.667 C 353.131 219.806,349.712 235.437,343.725 244.440 C 340.725 248.951,340.641 249.214,341.059 252.774 L 341.491 256.449 337.532 261.058 C 330.198 269.595,327.333 274.490,327.333 278.483 L 327.333 281.981 323.219 284.058 C 319.199 286.087,316.733 288.239,316.689 289.756 C 316.636 291.540,311.560 291.764,304.457 290.295 C 299.441 289.258,299.437 289.258,296.075 290.962 C 294.225 291.900,291.930 292.667,290.976 292.667 C 289.107 292.667,283.474 296.191,282.884 297.730 C 282.648 298.343,281.486 298.667,279.522 298.667 C 276.082 298.667,270.548 302.240,262.599 309.595 C 260.178 311.834,257.028 314.436,255.599 315.375 C 252.283 317.555,250.244 325.261,251.466 330.991 C 252.811 337.298,251.196 342.893,246.657 347.648 C 244.492 349.917,241.788 353.732,240.448 356.410 C 234.910 367.477,228.455 376.238,224.151 378.532 C 220.099 380.692,216.737 384.938,211.911 393.993 C 209.820 397.915,208.306 398.215,207.388 394.890 C 206.722 392.479,206.803 392.250,209.179 389.817 L 211.667 387.268 206.969 382.801 C 204.385 380.344,199.888 376.833,196.976 375.000 C 192.753 372.341,191.560 371.228,191.078 369.500 C 190.373 366.971,189.870 366.861,187.319 368.677 L 185.431 370.021 181.882 365.686 C 178.658 361.747,178.103 361.350,175.812 361.342 C 173.358 361.334,173.314 361.290,174.145 359.733 C 177.259 353.904,193.273 338.623,202.163 332.999 C 208.359 329.079,207.675 316.525,201.156 314.545 C 199.369 314.002,198.732 313.478,198.945 312.725 C 201.650 303.146,201.610 303.633,200.006 299.682 C 198.363 295.633,198.320 295.614,193.967 296.935 L 190.934 297.856 189.369 290.428 C 187.115 279.731,185.953 278.942,172.950 279.278 L 166.900 279.435 167.198 273.756 C 167.457 268.824,167.264 267.435,165.729 263.205 L 163.962 258.333 166.928 249.520 L 169.893 240.707 168.447 236.923 C 167.345 234.042,166.253 232.565,163.871 230.736 C 160.746 228.336,160.743 228.329,160.705 224.167 L 160.667 220.000 151.455 220.000 L 142.244 220.000 141.055 214.959 C 140.001 210.487,139.979 209.792,140.859 208.793 C 141.783 207.745,141.019 197.463,139.938 196.382 C 137.473 193.917,131.177 191.345,124.301 189.994 C 116.638 188.488,116.503 188.429,111.915 184.596 C 107.808 181.164,107.085 180.794,105.595 181.360 C 101.596 182.881,100.397 182.310,94.721 176.188 L 89.333 170.376 89.333 162.522 C 89.333 156.685,89.119 154.665,88.500 154.662 C 88.042 154.659,84.644 155.440,80.950 156.398 L 74.234 158.140 71.053 162.070 C 67.908 165.955,67.832 166.000,64.400 166.000 C 61.289 166.000,60.689 166.248,58.631 168.388 C 55.163 171.993,54.697 172.115,48.929 170.922 C 45.130 170.136,43.180 170.028,41.594 170.515 C 37.428 171.793,35.739 168.852,36.148 161.034 C 36.536 153.617,36.600 153.668,32.333 158.000 L 29.050 161.333 24.631 161.333 L 20.211 161.333 19.437 158.750 C 18.636 156.078,17.200 155.333,12.845 155.333 C 11.531 155.333,11.289 155.093,11.671 154.167 C 11.935 153.525,12.292 152.516,12.463 151.924 C 12.657 151.255,10.602 148.301,7.024 144.105 L 1.274 137.361 2.036 134.514 C 3.035 130.778,3.468 130.325,7.393 128.914 C 10.610 127.757,10.695 127.659,10.189 125.694 C 9.551 123.217,9.561 118.500,10.211 115.255 C 10.665 112.988,11.253 112.521,19.994 107.477 L 29.294 102.110 32.814 103.047 C 38.824 104.647,38.082 105.842,42.694 87.154 L 46.851 70.309 45.313 66.091 C 43.943 62.333,43.457 61.719,40.849 60.452 C 38.503 59.312,37.995 58.763,38.286 57.682 C 38.485 56.940,38.653 55.830,38.658 55.214 C 38.674 53.243,40.524 52.148,44.646 51.669 C 49.314 51.127,49.158 51.381,46.911 47.986 C 45.543 45.919,44.734 45.333,43.245 45.333 C 41.588 45.333,41.333 45.080,41.333 43.434 C 41.333 41.579,41.501 41.491,48.500 39.676 C 52.442 38.654,56.029 37.681,56.473 37.514 C 56.916 37.348,57.837 38.130,58.520 39.253 L 59.761 41.294 62.646 38.354 L 65.532 35.414 67.328 39.207 C 69.157 43.070,74.379 48.011,76.609 47.990 C 82.464 47.936,98.753 40.789,104.252 35.862 L 107.504 32.948 102.684 26.643 C 97.961 20.465,96.584 18.289,95.363 15.079 L 94.756 13.483 98.545 14.629 C 100.629 15.260,104.479 16.301,107.101 16.944 L 111.870 18.112 114.693 15.049 C 117.119 12.417,118.323 11.736,123.258 10.209 C 128.048 8.727,129.655 7.844,132.947 4.883 C 137.725 0.586,139.692 0.199,139.129 3.665 " stroke="none" fill="#000000" fill-rule="evenodd"></path></g></svg>